<?xml version="1.0" encoding="UTF-8" standalone="no"?>
<!DOCTYPE svg PUBLIC "-//W3C//DTD SVG 1.1//EN"
 "http://www.w3.org/Graphics/SVG/1.1/DTD/svg11.dtd">
<!-- Generated by graphviz version 2.44.1 (20200629.0846)
 -->
<!-- Title: g Pages: 1 -->
<svg width="892pt" height="460pt"
 viewBox="0.00 0.00 892.21 459.86" xmlns="http://www.w3.org/2000/svg" xmlns:xlink="http://www.w3.org/1999/xlink">
<g id="graph0" class="graph" transform="scale(1 1) rotate(0) translate(4 455.86)">
<title>g</title>
<polygon fill="white" stroke="transparent" points="-4,4 -4,-455.86 888.21,-455.86 888.21,4 -4,4"/>
<!-- AXL -->
<g id="node1" class="node">
<title>AXL</title>
<g id="a_node1"><a xlink:href="group__axl.html" xlink:title="AXL\nAsynchronous\nFile Transfer">
<ellipse fill="#4eee94" stroke="#4eee94" cx="67.18" cy="-220.43" rx="67.35" ry="37.45"/>
<text text-anchor="middle" x="67.18" y="-231.73" font-family="Times,serif" font-size="14.00">AXL</text>
<text text-anchor="middle" x="67.18" y="-216.73" font-family="Times,serif" font-size="14.00">Asynchronous</text>
<text text-anchor="middle" x="67.18" y="-201.73" font-family="Times,serif" font-size="14.00">File Transfer</text>
</a>
</g>
</g>
<!-- KVTree -->
<g id="node5" class="node">
<title>KVTree</title>
<g id="a_node5"><a xlink:href="group__kvtree.html" xlink:title="KVTree\nKey&#45;Value\nData Structure">
<ellipse fill="#4eee94" stroke="#4eee94" cx="350.18" cy="-109.48" rx="67.35" ry="37.45"/>
<text text-anchor="middle" x="350.18" y="-120.78" font-family="Times,serif" font-size="14.00">KVTree</text>
<text text-anchor="middle" x="350.18" y="-105.78" font-family="Times,serif" font-size="14.00">Key&#45;Value</text>
<text text-anchor="middle" x="350.18" y="-90.78" font-family="Times,serif" font-size="14.00">Data Structure</text>
</a>
</g>
</g>
<!-- AXL&#45;&gt;KVTree -->
<g id="edge6" class="edge">
<title>AXL&#45;&gt;KVTree</title>
<path fill="none" stroke="black" d="M121.74,-198.42C168.67,-180.36 236.42,-154.27 285.96,-135.2"/>
<polygon fill="black" stroke="black" points="287.22,-138.46 295.3,-131.61 284.71,-131.93 287.22,-138.46"/>
</g>
<!-- er -->
<g id="node2" class="node">
<title>er</title>
<g id="a_node2"><a xlink:href="group__er.html" xlink:title="er\nRedundancy\n&amp; Encoding">
<ellipse fill="#4eee94" stroke="#4eee94" cx="271.18" cy="-331.38" rx="59.29" ry="37.45"/>
<text text-anchor="middle" x="271.18" y="-342.68" font-family="Times,serif" font-size="14.00">er</text>
<text text-anchor="middle" x="271.18" y="-327.68" font-family="Times,serif" font-size="14.00">Redundancy</text>
<text text-anchor="middle" x="271.18" y="-312.68" font-family="Times,serif" font-size="14.00">&amp; Encoding</text>
</a>
</g>
</g>
<!-- redset -->
<g id="node3" class="node">
<title>redset</title>
<g id="a_node3"><a xlink:href="group__redset.html" xlink:title="redset\nRedundancy Sets">
<ellipse fill="#4eee94" stroke="#4eee94" cx="484.18" cy="-220.43" rx="77.56" ry="26.74"/>
<text text-anchor="middle" x="484.18" y="-224.23" font-family="Times,serif" font-size="14.00">redset</text>
<text text-anchor="middle" x="484.18" y="-209.23" font-family="Times,serif" font-size="14.00">Redundancy Sets</text>
</a>
</g>
</g>
<!-- er&#45;&gt;redset -->
<g id="edge12" class="edge">
<title>er&#45;&gt;redset</title>
<path fill="none" stroke="black" d="M316.61,-307.14C350.59,-289.76 397.1,-265.97 432.5,-247.86"/>
<polygon fill="black" stroke="black" points="434.4,-250.82 441.71,-243.15 431.21,-244.59 434.4,-250.82"/>
</g>
<!-- shuffile -->
<g id="node4" class="node">
<title>shuffile</title>
<g id="a_node4"><a xlink:href="group__shuffile.html" xlink:title="shuffile\nShuffle Files">
<ellipse fill="#4eee94" stroke="#4eee94" cx="251.18" cy="-220.43" rx="60.62" ry="26.74"/>
<text text-anchor="middle" x="251.18" y="-224.23" font-family="Times,serif" font-size="14.00">shuffile</text>
<text text-anchor="middle" x="251.18" y="-209.23" font-family="Times,serif" font-size="14.00">Shuffle Files</text>
</a>
</g>
</g>
<!-- er&#45;&gt;shuffile -->
<g id="edge13" class="edge">
<title>er&#45;&gt;shuffile</title>
<path fill="none" stroke="black" d="M264.52,-294.1C262.34,-282.23 259.92,-269.05 257.74,-257.22"/>
<polygon fill="black" stroke="black" points="261.16,-256.43 255.91,-247.22 254.27,-257.69 261.16,-256.43"/>
</g>
<!-- er&#45;&gt;KVTree -->
<g id="edge11" class="edge">
<title>er&#45;&gt;KVTree</title>
<path fill="none" stroke="black" d="M297.89,-297.77C306.49,-285.85 315.29,-271.85 321.18,-257.91 334.73,-225.76 342.04,-186.97 345.92,-157.25"/>
<polygon fill="black" stroke="black" points="349.42,-157.49 347.16,-147.14 342.47,-156.64 349.42,-157.49"/>
</g>
<!-- MPI -->
<g id="node9" class="node">
<title>MPI</title>
<ellipse fill="sandybrown" stroke="sandybrown" cx="582.18" cy="-18" rx="27" ry="18"/>
<text text-anchor="middle" x="582.18" y="-14.3" font-family="Times,serif" font-size="14.00">MPI</text>
</g>
<!-- er&#45;&gt;MPI -->
<g id="edge10" class="edge">
<title>er&#45;&gt;MPI</title>
<path fill="none" stroke="black" d="M226.52,-306.3C208.99,-294.29 190.79,-277.99 181.18,-257.91 143.69,-179.59 170.24,-122.07 241.18,-72 289.62,-37.81 467.01,-24.8 544.99,-20.67"/>
<polygon fill="black" stroke="black" points="545.5,-24.14 555.31,-20.14 545.14,-17.15 545.5,-24.14"/>
</g>
<!-- redset&#45;&gt;KVTree -->
<g id="edge8" class="edge">
<title>redset&#45;&gt;KVTree</title>
<path fill="none" stroke="black" d="M454.77,-195.52C437.43,-181.43 415.14,-163.3 395.58,-147.4"/>
<polygon fill="black" stroke="black" points="397.65,-144.56 387.68,-140.97 393.23,-150 397.65,-144.56"/>
</g>
<!-- rankstr -->
<g id="node6" class="node">
<title>rankstr</title>
<g id="a_node6"><a xlink:href="group__rankstr.html" xlink:title="rankstr\nUnique MPI\nRank Strings">
<ellipse fill="#4eee94" stroke="#4eee94" cx="537.18" cy="-109.48" rx="61.54" ry="37.45"/>
<text text-anchor="middle" x="537.18" y="-120.78" font-family="Times,serif" font-size="14.00">rankstr</text>
<text text-anchor="middle" x="537.18" y="-105.78" font-family="Times,serif" font-size="14.00">Unique MPI</text>
<text text-anchor="middle" x="537.18" y="-90.78" font-family="Times,serif" font-size="14.00">Rank Strings</text>
</a>
</g>
</g>
<!-- redset&#45;&gt;rankstr -->
<g id="edge9" class="edge">
<title>redset&#45;&gt;rankstr</title>
<path fill="none" stroke="black" d="M496.6,-193.89C502.27,-182.23 509.15,-168.09 515.62,-154.79"/>
<polygon fill="black" stroke="black" points="518.79,-156.28 520.01,-145.76 512.49,-153.22 518.79,-156.28"/>
</g>
<!-- redset&#45;&gt;MPI -->
<g id="edge7" class="edge">
<title>redset&#45;&gt;MPI</title>
<path fill="none" stroke="black" d="M471.66,-193.73C458.38,-162.41 442.34,-109.1 466.18,-72 483.63,-44.83 518.86,-31.41 545.93,-24.9"/>
<polygon fill="black" stroke="black" points="546.84,-28.29 555.86,-22.73 545.34,-21.45 546.84,-28.29"/>
</g>
<!-- shuffile&#45;&gt;KVTree -->
<g id="edge15" class="edge">
<title>shuffile&#45;&gt;KVTree</title>
<path fill="none" stroke="black" d="M273.15,-195.25C284.98,-182.22 299.9,-165.81 313.44,-150.9"/>
<polygon fill="black" stroke="black" points="316.25,-153.02 320.38,-143.27 311.06,-148.32 316.25,-153.02"/>
</g>
<!-- shuffile&#45;&gt;MPI -->
<g id="edge14" class="edge">
<title>shuffile&#45;&gt;MPI</title>
<path fill="none" stroke="black" d="M246.98,-193.34C243.29,-160.36 242.64,-104.03 274.18,-72 311.36,-34.23 471.21,-23.24 544.81,-20.15"/>
<polygon fill="black" stroke="black" points="545.16,-23.64 555.02,-19.75 544.89,-16.65 545.16,-23.64"/>
</g>
<!-- KVTree&#45;&gt;MPI -->
<g id="edge25" class="edge">
<title>KVTree&#45;&gt;MPI</title>
<path fill="none" stroke="black" stroke-dasharray="1,5" d="M401.73,-85.13C412.09,-80.63 422.93,-76.07 433.18,-72 472.49,-56.39 518.46,-40.37 548.83,-30.09"/>
<polygon fill="black" stroke="black" points="550.14,-33.34 558.5,-26.83 547.9,-26.71 550.14,-33.34"/>
</g>
<!-- rankstr&#45;&gt;MPI -->
<g id="edge16" class="edge">
<title>rankstr&#45;&gt;MPI</title>
<path fill="none" stroke="black" d="M554.83,-73.37C559.68,-63.73 564.84,-53.47 569.36,-44.49"/>
<polygon fill="black" stroke="black" points="572.59,-45.84 573.96,-35.33 566.34,-42.7 572.59,-45.84"/>
</g>
<!-- spath -->
<g id="node7" class="node">
<title>spath</title>
<g id="a_node7"><a xlink:href="group__spath.html" xlink:title="spath\nSCR Paths">
<ellipse fill="#4eee94" stroke="#4eee94" cx="831.18" cy="-331.38" rx="53.07" ry="26.74"/>
<text text-anchor="middle" x="831.18" y="-335.18" font-family="Times,serif" font-size="14.00">spath</text>
<text text-anchor="middle" x="831.18" y="-320.18" font-family="Times,serif" font-size="14.00">SCR Paths</text>
</a>
</g>
</g>
<!-- spath&#45;&gt;MPI -->
<g id="edge26" class="edge">
<title>spath&#45;&gt;MPI</title>
<path fill="none" stroke="black" stroke-dasharray="1,5" d="M837.93,-304.68C849.68,-253.59 867.5,-138.46 810.18,-72 785.56,-43.47 676.95,-28.46 618.96,-22.36"/>
<polygon fill="black" stroke="black" points="619.06,-18.85 608.76,-21.32 618.35,-25.81 619.06,-18.85"/>
</g>
<!-- DTCMP -->
<g id="node8" class="node">
<title>DTCMP</title>
<ellipse fill="sandybrown" stroke="sandybrown" cx="713.18" cy="-220.43" rx="41.69" ry="18"/>
<text text-anchor="middle" x="713.18" y="-216.73" font-family="Times,serif" font-size="14.00">DTCMP</text>
</g>
<!-- DTCMP&#45;&gt;MPI -->
<g id="edge1" class="edge">
<title>DTCMP&#45;&gt;MPI</title>
<path fill="none" stroke="black" d="M705.94,-202.6C691.26,-168.86 657.99,-94.28 641.18,-72 631.7,-59.44 618.92,-47.54 607.69,-38.2"/>
<polygon fill="black" stroke="black" points="609.83,-35.43 599.85,-31.89 605.44,-40.88 609.83,-35.43"/>
</g>
<!-- LWGRP -->
<g id="node10" class="node">
<title>LWGRP</title>
<ellipse fill="sandybrown" stroke="sandybrown" cx="735.18" cy="-109.48" rx="41.69" ry="18"/>
<text text-anchor="middle" x="735.18" y="-105.78" font-family="Times,serif" font-size="14.00">LWGRP</text>
</g>
<!-- DTCMP&#45;&gt;LWGRP -->
<g id="edge2" class="edge">
<title>DTCMP&#45;&gt;LWGRP</title>
<path fill="none" stroke="black" d="M716.61,-202.41C720.11,-185.08 725.59,-157.95 729.69,-137.65"/>
<polygon fill="black" stroke="black" points="733.14,-138.24 731.69,-127.74 726.28,-136.85 733.14,-138.24"/>
</g>
<!-- LWGRP&#45;&gt;MPI -->
<g id="edge3" class="edge">
<title>LWGRP&#45;&gt;MPI</title>
<path fill="none" stroke="black" d="M713.61,-93.88C703.31,-87.04 690.73,-78.9 679.18,-72 656.95,-58.72 631.21,-44.71 611.83,-34.44"/>
<polygon fill="black" stroke="black" points="613.35,-31.28 602.87,-29.71 610.08,-37.47 613.35,-31.28"/>
</g>
<!-- SCR -->
<g id="node11" class="node">
<title>SCR</title>
<ellipse fill="none" stroke="black" cx="727.18" cy="-331.38" rx="27.1" ry="18"/>
<text text-anchor="middle" x="727.18" y="-327.68" font-family="Times,serif" font-size="14.00">SCR</text>
</g>
<!-- SCR&#45;&gt;DTCMP -->
<g id="edge4" class="edge">
<title>SCR&#45;&gt;DTCMP</title>
<path fill="none" stroke="black" d="M724.99,-313.36C722.77,-296.11 719.31,-269.15 716.7,-248.88"/>
<polygon fill="black" stroke="black" points="720.14,-248.17 715.39,-238.69 713.2,-249.06 720.14,-248.17"/>
</g>
<!-- SCR&#45;&gt;MPI -->
<g id="edge5" class="edge">
<title>SCR&#45;&gt;MPI</title>
<path fill="none" stroke="black" d="M738.58,-314.84C768.82,-271.56 844.87,-147.89 786.18,-72 765.87,-45.75 671.91,-30.09 618.87,-23.19"/>
<polygon fill="black" stroke="black" points="619.2,-19.7 608.84,-21.93 618.33,-26.65 619.2,-19.7"/>
</g>
<!-- SCR2 -->
<g id="node12" class="node">
<title>SCR2</title>
<ellipse fill="none" stroke="black" cx="609.18" cy="-428.36" rx="31.7" ry="18"/>
<text text-anchor="middle" x="609.18" y="-424.66" font-family="Times,serif" font-size="14.00">SCR2</text>
</g>
<!-- SCR2&#45;&gt;er -->
<g id="edge21" class="edge">
<title>SCR2&#45;&gt;er</title>
<path fill="none" stroke="black" d="M579.4,-421.65C532.92,-412.42 440.53,-392.82 364.18,-368.86 352.8,-365.29 340.83,-361.01 329.4,-356.65"/>
<polygon fill="black" stroke="black" points="330.54,-353.34 319.95,-352.99 328.01,-359.87 330.54,-353.34"/>
</g>
<!-- SCR2&#45;&gt;KVTree -->
<g id="edge18" class="edge">
<title>SCR2&#45;&gt;KVTree</title>
<path fill="none" stroke="black" d="M586.68,-415.42C543.53,-391.4 448.85,-333.02 397.18,-257.91 376.38,-227.68 364.4,-187.75 357.74,-157.07"/>
<polygon fill="black" stroke="black" points="361.13,-156.14 355.69,-147.04 354.27,-157.54 361.13,-156.14"/>
</g>
<!-- SCR2&#45;&gt;rankstr -->
<g id="edge19" class="edge">
<title>SCR2&#45;&gt;rankstr</title>
<path fill="none" stroke="black" d="M608.18,-410.1C605.48,-369.61 596.45,-265.71 571.18,-182.95 568.31,-173.58 564.45,-163.87 560.35,-154.73"/>
<polygon fill="black" stroke="black" points="563.42,-153.03 556.03,-145.43 557.07,-155.98 563.42,-153.03"/>
</g>
<!-- SCR2&#45;&gt;spath -->
<g id="edge20" class="edge">
<title>SCR2&#45;&gt;spath</title>
<path fill="none" stroke="black" d="M635.76,-418.44C666.8,-407.76 719.45,-388.79 763.18,-368.86 771.23,-365.19 779.67,-360.98 787.74,-356.75"/>
<polygon fill="black" stroke="black" points="789.48,-359.79 796.67,-352.01 786.2,-353.61 789.48,-359.79"/>
</g>
<!-- SCR2&#45;&gt;DTCMP -->
<g id="edge22" class="edge">
<title>SCR2&#45;&gt;DTCMP</title>
<path fill="none" stroke="black" d="M618.71,-411.12C625.46,-399.47 634.62,-383.33 642.18,-368.86 664.03,-327 687.44,-277.35 701.16,-247.67"/>
<polygon fill="black" stroke="black" points="704.43,-248.96 705.43,-238.41 698.07,-246.03 704.43,-248.96"/>
</g>
<!-- SCR2&#45;&gt;MPI -->
<g id="edge17" class="edge">
<title>SCR2&#45;&gt;MPI</title>
<path fill="none" stroke="black" d="M611.92,-410.36C619.71,-358.6 639.39,-198.7 608.18,-72 605.82,-62.46 601.59,-52.62 597.2,-44.06"/>
<polygon fill="black" stroke="black" points="600.14,-42.13 592.29,-35.01 593.99,-45.47 600.14,-42.13"/>
</g>
<!-- veloc -->
<g id="node13" class="node">
<title>veloc</title>
<polygon fill="none" stroke="black" points="87.68,-405.36 87.68,-451.36 228.68,-451.36 228.68,-405.36 87.68,-405.36"/>
<text text-anchor="middle" x="158.18" y="-436.16" font-family="Times,serif" font-size="14.00">VeloC</text>
<polyline fill="none" stroke="black" points="87.68,-428.36 228.68,-428.36 "/>
<text text-anchor="middle" x="123.18" y="-413.16" font-family="Times,serif" font-size="14.00">Front End</text>
<polyline fill="none" stroke="black" points="158.68,-405.36 158.68,-428.36 "/>
<text text-anchor="middle" x="193.68" y="-413.16" font-family="Times,serif" font-size="14.00">Back End</text>
</g>
<!-- veloc&#45;&gt;AXL -->
<g id="edge23" class="edge">
<title>veloc:be&#45;&gt;AXL</title>
<path fill="none" stroke="black" d="M194.18,-404.86C194.18,-345.92 149.3,-292.23 112.9,-258.39"/>
<polygon fill="black" stroke="black" points="115.04,-255.6 105.28,-251.47 110.33,-260.78 115.04,-255.6"/>
</g>
<!-- veloc&#45;&gt;er -->
<g id="edge24" class="edge">
<title>veloc:be&#45;&gt;er</title>
<path fill="none" stroke="black" d="M230.18,-416.36C249.47,-416.36 259.68,-398.24 265.09,-378.84"/>
<polygon fill="black" stroke="black" points="268.53,-379.51 267.44,-368.97 261.72,-377.89 268.53,-379.51"/>
</g>
</g>
</svg>
