<?xml version="1.0" encoding="UTF-8" standalone="no"?>
<!DOCTYPE svg PUBLIC "-//W3C//DTD SVG 1.1//EN"
 "http://www.w3.org/Graphics/SVG/1.1/DTD/svg11.dtd">
<!-- Generated by graphviz version 2.40.1 (20161225.0304)
 -->
<!-- Title: g Pages: 1 -->
<svg width="984pt" height="445pt"
 viewBox="0.00 0.00 984.42 445.13" xmlns="http://www.w3.org/2000/svg" xmlns:xlink="http://www.w3.org/1999/xlink">
<g id="graph0" class="graph" transform="scale(1 1) rotate(0) translate(4 441.132)">
<title>g</title>
<polygon fill="#ffffff" stroke="transparent" points="-4,4 -4,-441.132 980.4242,-441.132 980.4242,4 -4,4"/>
<!-- AXL -->
<g id="node1" class="node">
<title>AXL</title>
<g id="a_node1"><a xlink:href="group__axl.html" xlink:title="AXL\nAsynchronous\nFile Transfer">
<ellipse fill="#4eee94" stroke="#4eee94" cx="485.5619" cy="-214.066" rx="68.513" ry="35.2113"/>
<text text-anchor="middle" x="485.5619" y="-223.866" font-family="Times,serif" font-size="14.00" fill="#000000">AXL</text>
<text text-anchor="middle" x="485.5619" y="-209.866" font-family="Times,serif" font-size="14.00" fill="#000000">Asynchronous</text>
<text text-anchor="middle" x="485.5619" y="-195.866" font-family="Times,serif" font-size="14.00" fill="#000000">File Transfer</text>
</a>
</g>
</g>
<!-- KVTree -->
<g id="node5" class="node">
<title>KVTree</title>
<g id="a_node5"><a xlink:href="group__kvtree.html" xlink:title="KVTree\nKey&#45;Value\nData Structure">
<ellipse fill="#4eee94" stroke="#4eee94" cx="388.5619" cy="-107.3553" rx="68.5262" ry="35.2113"/>
<text text-anchor="middle" x="388.5619" y="-117.1553" font-family="Times,serif" font-size="14.00" fill="#000000">KVTree</text>
<text text-anchor="middle" x="388.5619" y="-103.1553" font-family="Times,serif" font-size="14.00" fill="#000000">Key&#45;Value</text>
<text text-anchor="middle" x="388.5619" y="-89.1553" font-family="Times,serif" font-size="14.00" fill="#000000">Data Structure</text>
</a>
</g>
</g>
<!-- AXL&#45;&gt;KVTree -->
<g id="edge6" class="edge">
<title>AXL&#45;&gt;KVTree</title>
<path fill="none" stroke="#000000" d="M456.4587,-182.0493C446.4793,-171.0708 435.1881,-158.6493 424.7189,-147.132"/>
<polygon fill="#000000" stroke="#000000" points="427.2961,-144.7638 417.9798,-139.7183 422.1163,-149.4723 427.2961,-144.7638"/>
</g>
<!-- er -->
<g id="node2" class="node">
<title>er</title>
<g id="a_node2"><a xlink:href="group__er.html" xlink:title="er\nRedundancy\n&amp; Encoding">
<ellipse fill="#4eee94" stroke="#4eee94" cx="247.5619" cy="-320.7767" rx="60.594" ry="35.2113"/>
<text text-anchor="middle" x="247.5619" y="-330.5767" font-family="Times,serif" font-size="14.00" fill="#000000">er</text>
<text text-anchor="middle" x="247.5619" y="-316.5767" font-family="Times,serif" font-size="14.00" fill="#000000">Redundancy</text>
<text text-anchor="middle" x="247.5619" y="-302.5767" font-family="Times,serif" font-size="14.00" fill="#000000">&amp; Encoding</text>
</a>
</g>
</g>
<!-- redset -->
<g id="node3" class="node">
<title>redset</title>
<g id="a_node3"><a xlink:href="group__redset.html" xlink:title="redset\nRedundancy Sets">
<ellipse fill="#4eee94" stroke="#4eee94" cx="242.5619" cy="-214.066" rx="79.5485" ry="25.4118"/>
<text text-anchor="middle" x="242.5619" y="-216.866" font-family="Times,serif" font-size="14.00" fill="#000000">redset</text>
<text text-anchor="middle" x="242.5619" y="-202.866" font-family="Times,serif" font-size="14.00" fill="#000000">Redundancy Sets</text>
</a>
</g>
</g>
<!-- er&#45;&gt;redset -->
<g id="edge12" class="edge">
<title>er&#45;&gt;redset</title>
<path fill="none" stroke="#000000" d="M245.897,-285.2436C245.3619,-273.8244 244.7692,-261.1748 244.2337,-249.7452"/>
<polygon fill="#000000" stroke="#000000" points="247.7255,-249.4871 243.7612,-239.6619 240.7332,-249.8148 247.7255,-249.4871"/>
</g>
<!-- shuffile -->
<g id="node4" class="node">
<title>shuffile</title>
<g id="a_node4"><a xlink:href="group__shuffile.html" xlink:title="shuffile\nShuffle Files">
<ellipse fill="#4eee94" stroke="#4eee94" cx="83.5619" cy="-214.066" rx="61.7855" ry="25.4118"/>
<text text-anchor="middle" x="83.5619" y="-216.866" font-family="Times,serif" font-size="14.00" fill="#000000">shuffile</text>
<text text-anchor="middle" x="83.5619" y="-202.866" font-family="Times,serif" font-size="14.00" fill="#000000">Shuffle Files</text>
</a>
</g>
</g>
<!-- er&#45;&gt;shuffile -->
<g id="edge13" class="edge">
<title>er&#45;&gt;shuffile</title>
<path fill="none" stroke="#000000" d="M207.0226,-294.3988C182.1616,-278.2224 150.4008,-257.5564 125.3191,-241.2364"/>
<polygon fill="#000000" stroke="#000000" points="127.039,-238.1798 116.7482,-235.6595 123.2212,-244.0471 127.039,-238.1798"/>
</g>
<!-- er&#45;&gt;KVTree -->
<g id="edge11" class="edge">
<title>er&#45;&gt;KVTree</title>
<path fill="none" stroke="#000000" d="M287.2171,-293.6202C302.6488,-281.5114 319.4859,-266.1914 331.5619,-249.4214 352.7694,-219.9704 367.571,-181.5134 376.7662,-152.0395"/>
<polygon fill="#000000" stroke="#000000" points="380.1324,-152.9992 379.6708,-142.4144 373.4309,-150.9768 380.1324,-152.9992"/>
</g>
<!-- MPI -->
<g id="node10" class="node">
<title>MPI</title>
<ellipse fill="#f4a460" stroke="#f4a460" cx="658.5619" cy="-18" rx="27" ry="18"/>
<text text-anchor="middle" x="658.5619" y="-13.8" font-family="Times,serif" font-size="14.00" fill="#000000">MPI</text>
</g>
<!-- er&#45;&gt;MPI -->
<g id="edge10" class="edge">
<title>er&#45;&gt;MPI</title>
<path fill="none" stroke="#000000" d="M188.9463,-311.1133C126.4718,-299.4775 33.6713,-277.8921 12.5619,-249.4214 -6.1557,-224.1765 -1.4315,-206.8503 12.5619,-178.7107 47.5557,-108.3412 80.4962,-100.9453 153.5619,-72 238.9702,-38.1652 519.9237,-23.6339 621.5008,-19.3983"/>
<polygon fill="#000000" stroke="#000000" points="621.7453,-22.8913 631.5944,-18.9869 621.4602,-15.8971 621.7453,-22.8913"/>
</g>
<!-- redset&#45;&gt;KVTree -->
<g id="edge8" class="edge">
<title>redset&#45;&gt;KVTree</title>
<path fill="none" stroke="#000000" d="M274.6022,-190.6479C293.9544,-176.5035 318.9848,-158.2089 340.6559,-142.3696"/>
<polygon fill="#000000" stroke="#000000" points="342.7702,-145.1596 348.7783,-136.433 338.6396,-139.5082 342.7702,-145.1596"/>
</g>
<!-- rankstr -->
<g id="node6" class="node">
<title>rankstr</title>
<g id="a_node6"><a xlink:href="group__rankstr.html" xlink:title="rankstr\nUnique MPI\nRank Strings">
<ellipse fill="#4eee94" stroke="#4eee94" cx="567.5619" cy="-107.3553" rx="62.9806" ry="35.2113"/>
<text text-anchor="middle" x="567.5619" y="-117.1553" font-family="Times,serif" font-size="14.00" fill="#000000">rankstr</text>
<text text-anchor="middle" x="567.5619" y="-103.1553" font-family="Times,serif" font-size="14.00" fill="#000000">Unique MPI</text>
<text text-anchor="middle" x="567.5619" y="-89.1553" font-family="Times,serif" font-size="14.00" fill="#000000">Rank Strings</text>
</a>
</g>
</g>
<!-- redset&#45;&gt;rankstr -->
<g id="edge9" class="edge">
<title>redset&#45;&gt;rankstr</title>
<path fill="none" stroke="#000000" d="M299.7889,-196.3271C345.1362,-182.1523 410.0461,-161.5998 466.5619,-142.7107 478.9881,-138.5575 492.2328,-134.0095 504.9021,-129.5993"/>
<polygon fill="#000000" stroke="#000000" points="506.1686,-132.8643 514.4551,-126.2625 503.8602,-126.2559 506.1686,-132.8643"/>
</g>
<!-- redset&#45;&gt;MPI -->
<g id="edge7" class="edge">
<title>redset&#45;&gt;MPI</title>
<path fill="none" stroke="#000000" d="M247.269,-188.4117C254.6844,-155.8129 272.3754,-100.3816 310.5619,-72 359.3438,-35.7435 542.2627,-23.2322 621.5379,-19.4521"/>
<polygon fill="#000000" stroke="#000000" points="621.7375,-22.9467 631.5675,-18.9944 621.4183,-15.954 621.7375,-22.9467"/>
</g>
<!-- shuffile&#45;&gt;KVTree -->
<g id="edge15" class="edge">
<title>shuffile&#45;&gt;KVTree</title>
<path fill="none" stroke="#000000" d="M120.7924,-193.7634C131.2279,-188.4868 142.6938,-183.0673 153.5619,-178.7107 207.1372,-157.2346 269.7632,-138.5188 316.8872,-125.6492"/>
<polygon fill="#000000" stroke="#000000" points="317.961,-128.9846 326.6988,-122.9928 316.1316,-122.2278 317.961,-128.9846"/>
</g>
<!-- shuffile&#45;&gt;MPI -->
<g id="edge14" class="edge">
<title>shuffile&#45;&gt;MPI</title>
<path fill="none" stroke="#000000" d="M104.8501,-189.9588C135.3295,-157.2018 194.8038,-99.5631 258.5619,-72 323.5494,-43.9054 535.167,-26.518 621.4405,-20.4392"/>
<polygon fill="#000000" stroke="#000000" points="621.8278,-23.9208 631.5618,-19.7376 621.3437,-16.9376 621.8278,-23.9208"/>
</g>
<!-- KVTree&#45;&gt;MPI -->
<g id="edge31" class="edge">
<title>KVTree&#45;&gt;MPI</title>
<path fill="none" stroke="#000000" stroke-dasharray="1,5" d="M446.4837,-88.1864C500.7928,-70.213 580.1299,-43.9567 624.7789,-29.1804"/>
<polygon fill="#000000" stroke="#000000" points="625.8943,-32.498 634.2882,-26.0333 623.6949,-25.8524 625.8943,-32.498"/>
</g>
<!-- rankstr&#45;&gt;MPI -->
<g id="edge21" class="edge">
<title>rankstr&#45;&gt;MPI</title>
<path fill="none" stroke="#000000" d="M598.879,-76.6043C611.0765,-64.6272 624.785,-51.1665 635.9851,-40.1688"/>
<polygon fill="#000000" stroke="#000000" points="638.6058,-42.5007 643.2889,-32.997 633.7014,-37.506 638.6058,-42.5007"/>
</g>
<!-- filo -->
<g id="node7" class="node">
<title>filo</title>
<g id="a_node7"><a xlink:href="group__filo.html" xlink:title="filo\nFile Fetching">
<ellipse fill="#4eee94" stroke="#4eee94" cx="674.5619" cy="-320.7767" rx="63.665" ry="25.4118"/>
<text text-anchor="middle" x="674.5619" y="-323.5767" font-family="Times,serif" font-size="14.00" fill="#000000">filo</text>
<text text-anchor="middle" x="674.5619" y="-309.5767" font-family="Times,serif" font-size="14.00" fill="#000000">File Fetching</text>
</a>
</g>
</g>
<!-- filo&#45;&gt;AXL -->
<g id="edge19" class="edge">
<title>filo&#45;&gt;AXL</title>
<path fill="none" stroke="#000000" d="M637.6721,-299.9485C610.1974,-284.436 572.2165,-262.9918 541.081,-245.4125"/>
<polygon fill="#000000" stroke="#000000" points="542.5061,-242.1978 532.0774,-240.329 539.0645,-248.2933 542.5061,-242.1978"/>
</g>
<!-- filo&#45;&gt;KVTree -->
<g id="edge17" class="edge">
<title>filo&#45;&gt;KVTree</title>
<path fill="none" stroke="#000000" d="M660.5843,-295.6864C642.0565,-264.4564 606.6307,-211.2724 563.5619,-178.7107 545.6547,-165.1721 496.8893,-145.7191 455.3718,-130.5428"/>
<polygon fill="#000000" stroke="#000000" points="456.4139,-127.1978 445.8198,-127.0791 454.0276,-133.7785 456.4139,-127.1978"/>
</g>
<!-- spath -->
<g id="node8" class="node">
<title>spath</title>
<g id="a_node8"><a xlink:href="group__spath.html" xlink:title="spath\nSCR Paths">
<ellipse fill="#4eee94" stroke="#4eee94" cx="740.5619" cy="-214.066" rx="53.9043" ry="25.4118"/>
<text text-anchor="middle" x="740.5619" y="-216.866" font-family="Times,serif" font-size="14.00" fill="#000000">spath</text>
<text text-anchor="middle" x="740.5619" y="-202.866" font-family="Times,serif" font-size="14.00" fill="#000000">SCR Paths</text>
</a>
</g>
</g>
<!-- filo&#45;&gt;spath -->
<g id="edge18" class="edge">
<title>filo&#45;&gt;spath</title>
<path fill="none" stroke="#000000" d="M689.8695,-296.0269C698.7827,-281.6159 710.1406,-263.252 719.8454,-247.5612"/>
<polygon fill="#000000" stroke="#000000" points="723.0538,-249.0274 725.3373,-238.6816 717.1005,-245.3453 723.0538,-249.0274"/>
</g>
<!-- DTCMP -->
<g id="node9" class="node">
<title>DTCMP</title>
<ellipse fill="#f4a460" stroke="#f4a460" cx="853.5619" cy="-214.066" rx="40.6508" ry="18"/>
<text text-anchor="middle" x="853.5619" y="-209.866" font-family="Times,serif" font-size="14.00" fill="#000000">DTCMP</text>
</g>
<!-- filo&#45;&gt;DTCMP -->
<g id="edge20" class="edge">
<title>filo&#45;&gt;DTCMP</title>
<path fill="none" stroke="#000000" d="M713.874,-300.4826C739.7675,-286.7639 774.1863,-267.8534 803.5619,-249.4214 810.4005,-245.1304 817.5815,-240.2743 824.3,-235.5657"/>
<polygon fill="#000000" stroke="#000000" points="826.3802,-238.3812 832.5023,-229.7342 822.3241,-232.6761 826.3802,-238.3812"/>
</g>
<!-- filo&#45;&gt;MPI -->
<g id="edge16" class="edge">
<title>filo&#45;&gt;MPI</title>
<path fill="none" stroke="#000000" d="M673.2116,-295.2231C670.2398,-238.9868 663.152,-104.8603 660.054,-46.236"/>
<polygon fill="#000000" stroke="#000000" points="663.5468,-46.0054 659.5239,-36.2041 656.5566,-46.3749 663.5468,-46.0054"/>
</g>
<!-- spath&#45;&gt;MPI -->
<g id="edge32" class="edge">
<title>spath&#45;&gt;MPI</title>
<path fill="none" stroke="#000000" stroke-dasharray="1,5" d="M730.0097,-188.8352C714.5239,-151.8077 685.7616,-83.0359 669.8611,-45.0169"/>
<polygon fill="#000000" stroke="#000000" points="673.0126,-43.4811 665.9252,-35.6059 666.5547,-46.182 673.0126,-43.4811"/>
</g>
<!-- DTCMP&#45;&gt;MPI -->
<g id="edge1" class="edge">
<title>DTCMP&#45;&gt;MPI</title>
<path fill="none" stroke="#000000" d="M854.7754,-195.825C855.723,-166.0521 853.1387,-106.846 821.5619,-72 804.4096,-53.0718 737.1784,-35.287 694.6016,-25.5968"/>
<polygon fill="#000000" stroke="#000000" points="695.1369,-22.1302 684.6147,-23.3688 693.6127,-28.9623 695.1369,-22.1302"/>
</g>
<!-- LWGRP -->
<g id="node11" class="node">
<title>LWGRP</title>
<ellipse fill="#f4a460" stroke="#f4a460" cx="772.5619" cy="-107.3553" rx="40.314" ry="18"/>
<text text-anchor="middle" x="772.5619" y="-103.1553" font-family="Times,serif" font-size="14.00" fill="#000000">LWGRP</text>
</g>
<!-- DTCMP&#45;&gt;LWGRP -->
<g id="edge2" class="edge">
<title>DTCMP&#45;&gt;LWGRP</title>
<path fill="none" stroke="#000000" d="M840.5479,-196.9211C827.3218,-179.4969 806.691,-152.3175 791.623,-132.4667"/>
<polygon fill="#000000" stroke="#000000" points="794.3776,-130.3068 785.5437,-124.4577 788.802,-134.5391 794.3776,-130.3068"/>
</g>
<!-- LWGRP&#45;&gt;MPI -->
<g id="edge3" class="edge">
<title>LWGRP&#45;&gt;MPI</title>
<path fill="none" stroke="#000000" d="M752.4434,-91.5861C733.4546,-76.7023 704.8958,-54.3174 684.2649,-38.1465"/>
<polygon fill="#000000" stroke="#000000" points="686.2643,-35.2666 676.2347,-31.8523 681.946,-40.7759 686.2643,-35.2666"/>
</g>
<!-- SCR -->
<g id="node12" class="node">
<title>SCR</title>
<ellipse fill="none" stroke="#000000" cx="893.5619" cy="-320.7767" rx="27" ry="18"/>
<text text-anchor="middle" x="893.5619" y="-316.5767" font-family="Times,serif" font-size="14.00" fill="#000000">SCR</text>
</g>
<!-- SCR&#45;&gt;DTCMP -->
<g id="edge4" class="edge">
<title>SCR&#45;&gt;DTCMP</title>
<path fill="none" stroke="#000000" d="M886.9567,-303.1556C880.6833,-286.4195 871.1557,-261.0021 863.8806,-241.5937"/>
<polygon fill="#000000" stroke="#000000" points="867.098,-240.2052 860.3106,-232.07 860.5433,-242.6622 867.098,-240.2052"/>
</g>
<!-- SCR&#45;&gt;MPI -->
<g id="edge5" class="edge">
<title>SCR&#45;&gt;MPI</title>
<path fill="none" stroke="#000000" d="M896.8105,-302.6666C899.2176,-288.2872 902.2915,-267.6405 903.5619,-249.4214 909.2956,-167.1956 913.1883,-124.3987 849.5619,-72 825.9572,-52.5606 743.282,-34.121 694.7851,-24.638"/>
<polygon fill="#000000" stroke="#000000" points="695.1796,-21.1498 684.6985,-22.6983 693.8576,-28.0239 695.1796,-21.1498"/>
</g>
<!-- SCR2 -->
<g id="node13" class="node">
<title>SCR2</title>
<ellipse fill="none" stroke="#000000" cx="674.5619" cy="-414.632" rx="31.4897" ry="18"/>
<text text-anchor="middle" x="674.5619" y="-410.432" font-family="Times,serif" font-size="14.00" fill="#000000">SCR2</text>
</g>
<!-- SCR2&#45;&gt;er -->
<g id="edge26" class="edge">
<title>SCR2&#45;&gt;er</title>
<path fill="none" stroke="#000000" d="M644.1593,-409.5218C589.7882,-400.2012 472.4236,-379.2573 374.5619,-356.132 353.8892,-351.247 331.5131,-345.2569 311.3861,-339.6051"/>
<polygon fill="#000000" stroke="#000000" points="312.2788,-336.2204 301.7035,-336.8641 310.372,-342.9557 312.2788,-336.2204"/>
</g>
<!-- SCR2&#45;&gt;KVTree -->
<g id="edge23" class="edge">
<title>SCR2&#45;&gt;KVTree</title>
<path fill="none" stroke="#000000" d="M646.4105,-406.4074C590.1778,-388.3551 464.4804,-339.5158 407.5619,-249.4214 389.4909,-220.8173 385.2561,-182.5217 385.2576,-152.8985"/>
<polygon fill="#000000" stroke="#000000" points="388.7585,-152.867 385.4191,-142.8123 381.7594,-152.7549 388.7585,-152.867"/>
</g>
<!-- SCR2&#45;&gt;rankstr -->
<g id="edge24" class="edge">
<title>SCR2&#45;&gt;rankstr</title>
<path fill="none" stroke="#000000" d="M651.141,-402.311C634.4477,-392.2239 613.0114,-376.3383 601.5619,-356.132 565.4983,-292.4867 562.1055,-205.3825 564.0475,-152.9234"/>
<polygon fill="#000000" stroke="#000000" points="567.5449,-153.0583 564.4989,-142.9107 560.552,-152.7429 567.5449,-153.0583"/>
</g>
<!-- SCR2&#45;&gt;filo -->
<g id="edge27" class="edge">
<title>SCR2&#45;&gt;filo</title>
<path fill="none" stroke="#000000" d="M674.5619,-396.5358C674.5619,-385.1597 674.5619,-370.093 674.5619,-356.3937"/>
<polygon fill="#000000" stroke="#000000" points="678.062,-356.2681 674.5619,-346.2681 671.062,-356.2682 678.062,-356.2681"/>
</g>
<!-- SCR2&#45;&gt;spath -->
<g id="edge25" class="edge">
<title>SCR2&#45;&gt;spath</title>
<path fill="none" stroke="#000000" d="M698.4415,-402.9441C715.6073,-393.0895 737.4397,-377.2151 747.5619,-356.132 763.6717,-322.5778 758.3845,-279.2865 751.3119,-249.3562"/>
<polygon fill="#000000" stroke="#000000" points="754.6272,-248.1919 748.768,-239.3646 747.8436,-249.9191 754.6272,-248.1919"/>
</g>
<!-- SCR2&#45;&gt;DTCMP -->
<g id="edge28" class="edge">
<title>SCR2&#45;&gt;DTCMP</title>
<path fill="none" stroke="#000000" d="M698.9803,-403.0552C718.867,-392.7601 746.789,-376.2419 766.5619,-356.132 800.4113,-321.7058 827.109,-271.7687 841.5888,-241.1881"/>
<polygon fill="#000000" stroke="#000000" points="844.8252,-242.5284 845.8543,-231.9836 838.474,-239.5851 844.8252,-242.5284"/>
</g>
<!-- SCR2&#45;&gt;MPI -->
<g id="edge22" class="edge">
<title>SCR2&#45;&gt;MPI</title>
<path fill="none" stroke="#000000" d="M705.9213,-412.1932C767.7722,-406.6632 901.8989,-390.8599 929.5619,-356.132 1009.0569,-256.3349 980.7196,-160.2376 888.5619,-72 861.1597,-45.7634 753.2637,-29.2477 695.5122,-22.1038"/>
<polygon fill="#000000" stroke="#000000" points="695.6899,-18.6 685.343,-20.8787 694.8526,-25.5497 695.6899,-18.6"/>
</g>
<!-- veloc -->
<g id="node14" class="node">
<title>veloc</title>
<polygon fill="none" stroke="#000000" points="188.9584,-392.632 188.9584,-436.632 332.1654,-436.632 332.1654,-392.632 188.9584,-392.632"/>
<text text-anchor="middle" x="260.5619" y="-421.432" font-family="Times,serif" font-size="14.00" fill="#000000">VeloC</text>
<polyline fill="none" stroke="#000000" points="188.9584,-414.632 332.1654,-414.632 "/>
<text text-anchor="middle" x="225.1532" y="-399.432" font-family="Times,serif" font-size="14.00" fill="#000000">Front End</text>
<polyline fill="none" stroke="#000000" points="261.3481,-392.632 261.3481,-414.632 "/>
<text text-anchor="middle" x="296.7567" y="-399.432" font-family="Times,serif" font-size="14.00" fill="#000000">Back End</text>
</g>
<!-- veloc&#45;&gt;AXL -->
<g id="edge29" class="edge">
<title>veloc:be&#45;&gt;AXL</title>
<path fill="none" stroke="#000000" d="M332.5619,-403.632C406.5715,-403.632 450.8914,-315.0547 471.5295,-258.9971"/>
<polygon fill="#000000" stroke="#000000" points="474.9331,-259.8723 474.992,-249.2777 468.339,-257.5231 474.9331,-259.8723"/>
</g>
<!-- veloc&#45;&gt;er -->
<g id="edge30" class="edge">
<title>veloc:be&#45;&gt;er</title>
<path fill="none" stroke="#000000" d="M296.5619,-392.632C296.5619,-380.8368 291.9994,-369.5494 285.6587,-359.5582"/>
<polygon fill="#000000" stroke="#000000" points="288.3308,-357.2749 279.6989,-351.1315 282.6157,-361.3169 288.3308,-357.2749"/>
</g>
</g>
</svg>
